<?xml version="1.0" encoding="utf-8"?>
<!DOCTYPE svg PUBLIC "-//W3C//DTD SVG 1.1//EN" "http://www.w3.org/Graphics/SVG/1.1/DTD/svg11.dtd">
<svg fill="#b51b1b" version="1.1" xmlns="http://www.w3.org/2000/svg" xmlns:xlink="http://www.w3.org/1999/xlink" x="0px" y="0px" viewBox="0 0 1000 1000" enable-background="new 0 0 1000 1000" xml:space="preserve">
<g><g transform="translate(0.000000,512.000000) scale(0.100000,-0.100000)"><path d="M4529.1,4974.1c-164.6-76.6-275.6-258.4-275.6-455.6v-72.7H2636.1c-1609.7,0-1617.4,0-1703.5-40.2c-105.3-49.8-206.7-162.7-235.4-264.1c-15.3-44-23-216.3-23-444.1c0-333,5.7-380.9,40.2-457.5c67-149.3,181.8-237.3,348.3-264.1l80.4-15.3l9.6-3701.8c11.5-4157.4-5.7-3772.6,158.9-3916.2c47.9-42.1,120.6-88.1,162.7-99.5c57.4-17.2,943.6-23,3556.3-23h3481.7l95.7,45.9c53.6,22.9,124.4,74.6,157,112.9c128.3,147.4,120.6-111,120.6,3918.1v3650.1l114.8,42.1c147.4,53.6,224,120.6,279.5,241.2c42.1,90,45.9,118.7,45.9,467c0,225.9-9.6,400-23,444.1c-28.7,99.5-130.1,216.3-231.6,264.1c-82.3,40.2-99.5,40.2-1701.6,40.2H5752.2l-9.6,120.6c-11.5,147.4-65.1,256.5-168.4,342.6c-112.9,97.6-179.9,111-585.7,111C4647.8,5020,4621,5016.2,4529.1,4974.1z M8981.2,3708.9v-392.4H5000H1018.7v392.4v392.4H5000h3981.2V3708.9z M8521.9-731.8v-3703.7H5009.6H1497.3v3703.7V2972h3512.3h3512.3V-731.8z"/><path d="M3244.8,2152.7c-23-3.8-65.1-32.5-91.9-65.1l-47.9-57.4l3.8-2785l5.7-2785l53.6-45.9c70.8-61.2,164.6-61.2,231.6,1.9l49.8,45.9v2790.7c0,3054.8,7.7,2851.9-109.1,2890.2C3309.9,2152.7,3267.8,2156.6,3244.8,2152.7z"/><path d="M4929.2,2145.1c-128.2-34.4-120.6,162.7-120.6-2896v-2769.7l55.5-55.5c74.6-72.8,168.4-76.6,239.3-5.8l49.8,51.7v2786.9c0,3049.1,7.7,2846.2-109.1,2886.4C5011.5,2154.6,4965.6,2154.6,4929.2,2145.1z"/><path d="M6617.4,2141.3c-32.5-13.4-68.9-47.9-82.3-76.6c-17.2-40.2-23-675.7-23-2817.5v-2767.8l55.5-55.5c74.6-72.8,168.4-76.6,239.3-5.8l49.8,51.7v2783.1c0,1958.1-5.7,2794.5-21,2823.2c-11.5,21-49.8,49.8-84.2,65.1C6674.8,2171.9,6688.2,2171.9,6617.4,2141.3z"/></g></g>
</svg>
